<svg height="512pt" viewBox="0 0 512 512" width="512pt" xmlns="http://www.w3.org/2000/svg"><path d="m362.238281 0h-212.167969l-150.070312 150.070312v211.859376l150.070312 150.070312h211.859376l150.070312-150.070312v-211.851563zm0 0" fill="#ff641a"/><path d="m512 150.078125v211.851563l-150.070312 150.070312h-105.929688v-512h106.238281zm0 0" fill="#f03800"/><path d="m337.339844 60h-162.410156l-114.929688 114.929688v162.140624l114.929688 114.929688h162.140624l114.929688-114.929688v-162.171874zm0 0" fill="#f03800"/><path d="m452 174.898438v162.171874l-114.929688 114.929688h-81.070312v-392h81.339844zm0 0" fill="#cd0000"/><path d="m211 121v150h90v-150zm0 0" fill="#deecf1"/><path d="m211 301v90h90v-90zm0 0" fill="#deecf1"/><g fill="#c6e2e7"><path d="m256 121h45v150h-45zm0 0"/><path d="m256 301h45v90h-45zm0 0"/></g></svg>