<?xml version="1.0" encoding="iso-8859-1"?>
<!-- Generator: Adobe Illustrator 19.0.0, SVG Export Plug-In . SVG Version: 6.00 Build 0)  -->
<svg version="1.1" id="Capa_1" xmlns="http://www.w3.org/2000/svg" xmlns:xlink="http://www.w3.org/1999/xlink" x="0px" y="0px"
	 viewBox="0 0 512 512" style="enable-background:new 0 0 512 512;" xml:space="preserve">
<rect x="399.919" y="53.46" style="fill:#E70C6A;" width="57.14" height="79.23"/>
<rect x="399.919" y="162.08" style="fill:#FFA920;" width="57.14" height="79.23"/>
<rect x="399.919" y="270.69" style="fill:#36CC8F;" width="57.14" height="79.23"/>
<rect x="399.919" y="379.31" style="fill:#005ED2;" width="57.14" height="79.23"/>
<rect x="54.941" style="fill:#00A5FF;" width="359.98" height="512"/>
<rect x="235.569" style="fill:#0087FF;" width="179.35" height="512"/>
<g>
	<rect x="189.179" y="366.49" style="fill:#E1E4FB;" width="91.5" height="30"/>
	<rect x="189.179" y="421.65" style="fill:#E1E4FB;" width="91.5" height="30"/>
</g>
<g>
	<rect x="235.569" y="366.49" style="fill:#C5C9F7;" width="45.11" height="30"/>
	<rect x="235.569" y="421.65" style="fill:#C5C9F7;" width="45.11" height="30"/>
</g>
<g>
	<path style="fill:#00459D;" d="M329.991,277.91v45.81h-188.83v-45.81c0-41.79,33.99-75.78,75.78-75.78h37.27
		C295.991,202.13,329.991,236.12,329.991,277.91z"/>
	<path style="fill:#00459D;" d="M296.171,122.77c0,33.55-27.13,60.88-60.6,61.22c-0.21,0.01-0.43,0.01-0.64,0.01
		c-33.77,0-61.24-27.47-61.24-61.23c0-33.77,27.47-61.24,61.24-61.24c0.21,0,0.43,0,0.64,0.01
		C269.041,61.88,296.171,89.21,296.171,122.77z"/>
</g>
<g>
	<path style="fill:#002D6B;" d="M235.571,183.99V61.54c33.47,0.34,60.6,27.67,60.6,61.23
		C296.171,156.32,269.041,183.65,235.571,183.99z"/>
	<path style="fill:#002D6B;" d="M329.991,277.91v45.81h-94.42V202.13h18.64C295.991,202.13,329.991,236.12,329.991,277.91z"/>
</g>
<g>
</g>
<g>
</g>
<g>
</g>
<g>
</g>
<g>
</g>
<g>
</g>
<g>
</g>
<g>
</g>
<g>
</g>
<g>
</g>
<g>
</g>
<g>
</g>
<g>
</g>
<g>
</g>
<g>
</g>
</svg>
